# Blender 5.1.1
# www.blender.org
mtllib terrain2.mtl
o Plane
v -19.999998 3.531400 -19.999998
v -19.999998 0.000000 19.999998
v 19.999998 4.537642 -19.999998
v 18.489710 0.000000 19.999998
v -19.999998 4.065485 -12.000000
v -19.999998 3.560452 -4.000001
v -19.999998 1.657614 3.999999
v -19.999998 0.000000 11.999998
v 18.405344 0.000000 12.000000
v 19.426092 2.045921 3.508447
v 19.999998 3.425389 -3.999999
v 19.999998 4.537642 -11.999998
v 12.000000 4.537642 -19.999998
v 4.000001 1.542903 -19.999998
v -3.999999 1.542903 -19.999998
v -11.999998 3.531400 -19.999998
v -12.000000 0.000000 19.999998
v -4.000001 0.000000 19.999998
v 3.999999 0.000000 19.999998
v 11.999998 0.000000 19.999998
v -11.999998 4.065485 -12.000000
v -4.000000 1.542903 -11.999999
v 4.000000 1.542903 -11.999999
v 12.000000 4.537642 -11.999998
v -11.999999 3.560452 -4.000000
v -4.000000 0.000000 -4.000000
v 4.000000 0.000000 -4.000000
v 11.999999 3.425389 -4.000000
v -11.999999 1.657614 4.000000
v -4.000000 0.000000 4.000000
v 4.000000 0.000000 4.000000
v 11.999999 2.045921 4.000000
v -12.000000 0.000000 11.999998
v -4.000000 0.000000 11.999999
v 4.000000 0.000000 11.999999
v 11.999998 0.000000 12.000000
v 1.333334 1.542903 -19.999998
v -1.333333 1.542903 -19.999998
v -1.333334 0.000000 19.999998
v 1.333333 0.000000 19.999998
v -1.333333 1.542903 -11.999999
v 1.333334 1.542903 -11.999999
v -1.333333 0.000000 -4.000000
v 1.333333 0.000000 -4.000000
v -1.333333 0.000000 4.000000
v 1.333333 0.000000 4.000000
v -1.333334 0.000000 11.999999
v 1.333333 0.000000 11.999999
v -19.999998 2.191699 -1.333334
v -19.999998 1.657614 1.333333
v 19.273335 2.045921 1.333334
v 19.999998 3.425389 -1.333333
v -11.999999 1.657614 1.333333
v -11.999999 2.191699 -1.333334
v -4.000000 0.000000 1.333333
v -4.000000 0.000000 -1.333333
v 4.000000 0.000000 1.333333
v 4.000000 0.000000 -1.333333
v 11.999999 2.045921 1.333334
v 11.999999 3.425389 -1.333333
v -1.333333 0.000000 1.333333
v -1.333333 0.000000 -1.333333
v 1.333333 0.000000 1.333333
v 1.333333 0.000000 -1.333333
v 19.039347 17.108795 -18.398010
v 20.672949 2.925661 10.643837
v 20.611574 7.338545 3.664423
v 21.293835 11.117448 -3.520481
v 20.479053 14.642154 -10.787774
v 21.293835 8.160759 1.127677
v 21.293835 10.295234 -0.983736
v 26.353647 17.108795 -18.398008
v 27.403437 0.003197 19.947224
v 27.403437 2.925661 10.643837
v 27.403437 7.338545 3.664423
v 27.403437 11.117448 -3.520481
v 27.403437 14.642154 -10.787774
v 27.403437 8.160759 1.127677
v 27.403437 10.295234 -0.983736
vn -0.0000 1.0000 -0.0000
vn -0.0000 0.9905 0.1377
vn 0.0086 0.9704 0.2413
vn -0.0000 0.9792 0.2029
vn 0.1025 0.9894 0.1025
vn -0.1258 0.9840 0.1258
vn 0.2029 0.9792 -0.0000
vn -0.2478 0.9688 -0.0000
vn -0.0000 0.9980 0.0630
vn 0.3529 0.9281 0.1188
vn -0.0000 0.9819 0.1894
vn -0.3681 0.9173 0.1522
vn -0.0000 0.9978 -0.0666
vn 0.2712 0.9620 -0.0321
vn -0.3506 0.9365 -0.0000
vn -0.3936 0.9193 -0.0000
vn -0.3143 0.9191 0.2377
vn 0.3289 0.9147 0.2348
vn 0.2328 0.9677 0.0969
vn -0.0000 0.8897 0.4566
vn -0.0000 0.9805 0.1964
vn -0.0000 0.8882 0.4595
vn -0.9845 0.1734 0.0274
vn -0.9685 0.2468 0.0342
vn -0.7885 0.6150 0.0083
vn -0.9926 0.0912 0.0807
vn -0.9105 0.3986 0.1100
vn -0.9610 0.2698 -0.0609
vn -0.9957 -0.0319 0.0868
vn -0.0000 0.9513 0.3083
vn 0.0008 0.9542 0.2992
vn -0.0000 0.7033 0.7109
vn -0.0000 0.8998 0.4364
vn -0.0000 0.8452 0.5344
vt 0.800000 0.800000
vt 1.000000 0.800000
vt 1.000000 0.950721
vt 0.800000 0.948944
vt 0.000000 0.800000
vt 0.200000 0.800000
vt 0.200000 1.000000
vt 0.000000 1.000000
vt 0.400000 0.800000
vt 0.400000 1.000000
vt 0.533333 0.800000
vt 0.600000 0.800000
vt 0.587711 0.974463
vt 0.533333 0.981833
vt 0.600000 0.000000
vt 0.800000 0.000000
vt 0.800000 0.200000
vt 0.600000 0.200000
vt 0.800000 0.400000
vt 0.600000 0.400000
vt 0.600000 0.533333
vt 0.800000 0.533333
vt 0.800000 0.600000
vt 0.600000 0.600000
vt 0.533333 0.000000
vt 0.533333 0.200000
vt 0.533333 0.400000
vt 0.600000 0.466667
vt 0.533333 0.466667
vt 0.533333 0.600000
vt 0.200000 0.000000
vt 0.400000 0.000000
vt 0.400000 0.200000
vt 0.200000 0.200000
vt 0.400000 0.400000
vt 0.200000 0.400000
vt 0.200000 0.533333
vt 0.400000 0.533333
vt 0.400000 0.600000
vt 0.200000 0.600000
vt 0.000000 0.000000
vt 0.000000 0.200000
vt 0.000000 0.400000
vt 0.000000 0.533333
vt 0.000000 0.600000
vt 1.000000 0.000000
vt 1.000000 0.200000
vt 1.000000 0.400000
vt 1.000000 0.533333
vt 1.000000 0.600000
vt 1.000000 0.466667
vt 0.800000 0.466667
vt 0.200000 0.466667
vt 0.000000 0.466667
vt 0.400000 0.466667
vt 0.466667 0.400000
vt 0.466667 0.466667
vt 0.533333 0.533333
vt 0.466667 0.533333
vt 0.466667 0.600000
vt 0.466667 0.800000
vt 0.466667 0.200000
vt 0.466667 0.000000
vt 0.466667 1.000000
vt 0.533333 1.000000
vt 0.800000 1.000000
vt 0.600000 1.000000
vt 1.000000 1.000000
vt 0.800000 1.000000
s 0
f 36/1/1 20/2/1 4/3/1 9/4/1
f 13/5/1 24/6/1 12/7/1 3/8/1
f 24/6/2 28/9/2 11/10/2 12/7/2
f 59/11/1 32/12/1 10/13/1 51/14/1
f 32/12/3 36/1/3 9/4/3 10/13/3
f 7/15/4 8/16/4 33/17/4 29/18/4
f 29/18/5 33/17/5 34/19/5 30/20/5
f 46/21/1 48/22/1 35/23/1 31/24/1
f 31/24/6 35/23/6 36/1/6 32/12/6
f 50/25/1 7/15/1 29/18/1 53/26/1
f 53/26/7 29/18/7 30/20/7 55/27/7
f 30/20/1 45/28/1 61/29/1 55/27/1
f 57/30/8 31/24/8 32/12/8 59/11/8
f 5/31/9 6/32/9 25/33/9 21/34/9
f 21/34/10 25/33/10 26/35/10 22/36/10
f 42/37/11 44/38/11 27/39/11 23/40/11
f 23/40/12 27/39/12 28/9/12 24/6/12
f 1/41/13 5/31/13 21/34/13 16/42/13
f 16/42/14 21/34/14 22/36/14 15/43/14
f 37/44/1 42/37/1 23/40/1 14/45/1
f 14/45/15 23/40/15 24/6/15 13/5/15
f 8/16/1 2/46/1 17/47/1 33/17/1
f 33/17/1 17/47/1 18/48/1 34/19/1
f 48/22/1 40/49/1 19/50/1 35/23/1
f 35/23/1 19/50/1 20/2/1 36/1/1
f 34/19/1 18/48/1 39/51/1 47/52/1
f 47/52/1 39/51/1 40/49/1 48/22/1
f 15/43/1 22/36/1 41/53/1 38/54/1
f 38/54/1 41/53/1 42/37/1 37/44/1
f 22/36/11 26/35/11 43/55/11 41/53/11
f 41/53/11 43/55/11 44/38/11 42/37/11
f 26/35/1 56/56/1 62/57/1 43/55/1
f 61/29/1 45/28/1 46/21/1 63/58/1
f 30/20/1 34/19/1 47/52/1 45/28/1
f 45/28/1 47/52/1 48/22/1 46/21/1
f 43/55/1 62/57/1 64/59/1 44/38/1
f 62/57/1 61/29/1 63/58/1 64/59/1
f 64/59/1 58/60/1 27/39/1 44/38/1
f 56/56/1 55/27/1 61/29/1 62/57/1
f 27/39/16 58/60/16 60/61/16 28/9/16
f 58/60/17 57/30/17 59/11/17 60/61/17
f 64/59/1 63/58/1 57/30/1 58/60/1
f 25/33/18 54/62/18 56/56/18 26/35/18
f 54/62/19 53/26/19 55/27/19 56/56/19
f 6/32/20 49/63/20 54/62/20 25/33/20
f 49/63/21 50/25/21 53/26/21 54/62/21
f 28/9/1 60/61/1 52/64/1 11/10/1
f 60/61/22 59/11/22 51/14/22 52/64/22
f 63/58/1 46/21/1 31/24/1 57/30/1
f 11/10/23 52/64/23 71/64/23 68/10/23
f 52/64/24 51/14/24 70/65/24 71/64/24
f 9/4/25 4/3/25 66/66/25
f 12/7/26 11/10/26 68/10/26 69/7/26
f 10/13/27 9/4/27 66/66/27 67/67/27
f 51/14/28 10/13/28 67/67/28 70/65/28
f 3/8/29 12/7/29 69/7/29 65/8/29
f 70/65/30 67/67/30 75/67/30 78/65/30
f 68/10/30 71/64/30 79/64/30 76/10/30
f 66/66/31 4/3/31 73/68/31 74/69/31
f 71/64/32 70/65/32 78/65/32 79/64/32
f 69/7/33 68/10/33 76/10/33 77/7/33
f 67/67/34 66/66/34 74/69/34 75/67/34
f 65/8/30 69/7/30 77/7/30 72/8/30
