# Blender 5.1.1
# www.blender.org
mtllib terrain.mtl
o Plane
v -100.000000 0.000000 100.000000
v 100.000000 0.000000 100.000000
v -100.000000 0.000000 -100.000000
v 100.000000 0.000000 -100.000000
v -60.000000 0.000000 100.000000
v -20.000002 0.000000 100.000000
v 20.000002 0.000000 100.000000
v 60.000000 0.000000 100.000000
v 60.000000 0.000000 -100.000000
v 20.000002 0.000000 -100.000000
v -20.000002 0.000000 -100.000000
v -60.000000 0.000000 -100.000000
v -100.000000 0.000000 -60.000000
v -100.000000 0.000000 -20.000002
v -100.000000 0.000000 20.000002
v -100.000000 0.000000 60.000000
v 100.000000 0.000000 60.000000
v 100.000000 0.000000 20.000002
v 100.000000 0.000000 -20.000002
v 100.000000 0.000000 -60.000000
v -60.000000 0.000000 60.000000
v -60.000000 0.000000 20.000002
v -60.000000 0.000000 -20.000002
v -60.000000 0.000000 -60.000000
v -20.000002 0.000000 60.000000
v -20.000002 0.000000 20.000002
v -20.000002 0.000000 -20.000002
v -20.000002 0.000000 -60.000000
v 20.000002 0.000000 60.000000
v 20.000002 0.000000 20.000002
v 20.000002 0.000000 -20.000002
v 20.000002 0.000000 -60.000000
v 60.000000 0.000000 60.000000
v 60.000000 0.000000 20.000002
v 60.000000 0.000000 -20.000002
v 60.000000 0.000000 -60.000000
v -100.000000 0.000000 -6.666667
v -100.000000 0.000000 6.666667
v 100.000000 0.000000 6.666667
v 100.000000 0.000000 -6.666667
v -60.000000 -10.000000 6.666667
v -60.000000 -10.000000 -6.666667
v -20.000002 -10.000000 6.666667
v -20.000002 -10.000000 -6.666667
v 20.000002 -10.000000 6.666667
v 20.000002 -10.000000 -6.666667
v 60.000000 -10.000000 6.666667
v 60.000000 -10.000000 -6.666667
v -6.666667 0.000000 100.000000
v 6.666667 0.000000 100.000000
v 6.666667 0.000000 -100.000000
v -6.666667 0.000000 -100.000000
v 6.666667 -10.000000 60.000000
v -6.666667 -10.000000 60.000000
v 6.666667 -10.000000 20.000002
v -6.666667 -10.000000 20.000002
v 6.666667 -10.000000 -20.000002
v -6.666667 -10.000000 -20.000002
v 6.666667 -10.000000 -60.000000
v -6.666667 -10.000000 -60.000000
v 13.333335 -10.000000 13.333335
v -13.333335 -10.000000 13.333335
v 13.333335 -10.000000 -13.333335
v -13.333335 -10.000000 -13.333335
vn -0.0000 1.0000 -0.0000
vn -0.3487 0.9300 0.1162
vn -0.0000 0.8000 0.6000
vn -0.3487 0.9300 -0.1162
vn -0.6000 0.8000 -0.0000
vn -0.5145 0.6860 0.5145
vn 0.1162 0.9300 0.3487
vn -0.1162 0.9300 0.3487
vn -0.1162 0.9300 -0.3487
vn -0.2425 0.9701 -0.0000
vn 0.1162 0.9300 -0.3487
vn 0.2425 0.9701 -0.0000
vn -0.0000 0.8000 -0.6000
vn -0.5145 0.6860 -0.5145
vn 0.5145 0.6860 -0.5145
vn 0.6000 0.8000 -0.0000
vn 0.5145 0.6860 0.5145
vn 0.3487 0.9300 -0.1162
vn -0.0000 0.9701 -0.2425
vn 0.3487 0.9300 0.1162
vn -0.0000 0.9701 0.2425
vt 0.800000 0.800000
vt 1.000000 0.800000
vt 1.000000 1.000000
vt 0.800000 1.000000
vt 0.000000 0.800000
vt 0.200000 0.800000
vt 0.200000 1.000000
vt 0.000000 1.000000
vt 0.400000 0.800000
vt 0.400000 1.000000
vt 0.533333 0.800000
vt 0.600000 0.800000
vt 0.600000 1.000000
vt 0.533333 1.000000
vt 0.600000 0.000000
vt 0.800000 0.000000
vt 0.800000 0.200000
vt 0.600000 0.200000
vt 0.800000 0.400000
vt 0.600000 0.400000
vt 0.600000 0.533333
vt 0.800000 0.533333
vt 0.800000 0.600000
vt 0.600000 0.600000
vt 0.533333 0.000000
vt 0.533333 0.200000
vt 0.533333 0.400000
vt 0.533333 0.533333
vt 0.533333 0.600000
vt 0.200000 0.000000
vt 0.400000 0.000000
vt 0.400000 0.200000
vt 0.200000 0.200000
vt 0.400000 0.400000
vt 0.200000 0.400000
vt 0.200000 0.533333
vt 0.400000 0.533333
vt 0.400000 0.600000
vt 0.200000 0.600000
vt 0.000000 0.000000
vt 0.000000 0.200000
vt 0.000000 0.400000
vt 0.000000 0.533333
vt 0.000000 0.600000
vt 1.000000 0.000000
vt 1.000000 0.200000
vt 1.000000 0.400000
vt 1.000000 0.533333
vt 1.000000 0.600000
vt 1.000000 0.466667
vt 0.800000 0.466667
vt 0.200000 0.466667
vt 0.000000 0.466667
vt 0.400000 0.466667
vt 0.533333 0.466667
vt 0.600000 0.466667
vt 0.466667 0.466667
vt 0.466667 0.533333
vt 0.466667 0.400000
vt 0.466667 0.600000
vt 0.466667 0.800000
vt 0.466667 0.200000
vt 0.466667 0.000000
vt 0.466667 1.000000
s 0
f 36/1/1 20/2/1 4/3/1 9/4/1
f 13/5/1 24/6/1 12/7/1 3/8/1
f 24/6/1 28/9/1 11/10/1 12/7/1
f 59/11/2 32/12/2 10/13/2 51/14/2
f 32/12/1 36/1/1 9/4/1 10/13/1
f 7/15/1 8/16/1 33/17/1 29/18/1
f 29/18/1 33/17/1 34/19/1 30/20/1
f 46/21/3 48/22/3 35/23/3 31/24/3
f 31/24/1 35/23/1 36/1/1 32/12/1
f 50/25/4 7/15/4 29/18/4 53/26/4
f 53/26/5 29/18/5 30/20/5 55/27/5
f 63/28/6 31/24/6 57/29/6
f 57/29/5 31/24/5 32/12/5 59/11/5
f 5/30/1 6/31/1 25/32/1 21/33/1
f 21/33/1 25/32/1 26/34/1 22/35/1
f 42/36/3 44/37/3 27/38/3 23/39/3
f 23/39/1 27/38/1 28/9/1 24/6/1
f 1/40/1 5/30/1 21/33/1 16/41/1
f 16/41/1 21/33/1 22/35/1 15/42/1
f 37/43/7 42/36/7 23/39/7 14/44/7
f 14/44/1 23/39/1 24/6/1 13/5/1
f 8/16/1 2/45/1 17/46/1 33/17/1
f 33/17/1 17/46/1 18/47/1 34/19/1
f 48/22/8 40/48/8 19/49/8 35/23/8
f 35/23/1 19/49/1 20/2/1 36/1/1
f 34/19/9 18/47/9 39/50/9 47/51/9
f 47/51/10 39/50/10 40/48/10 48/22/10
f 15/42/11 22/35/11 41/52/11 38/53/11
f 38/53/12 41/52/12 42/36/12 37/43/12
f 22/35/13 26/34/13 43/54/13 41/52/13
f 41/52/1 43/54/1 44/37/1 42/36/1
f 55/27/14 30/20/14 61/55/14
f 61/55/1 45/56/1 46/21/1 63/28/1
f 30/20/13 34/19/13 47/51/13 45/56/13
f 45/56/1 47/51/1 48/22/1 46/21/1
f 43/54/1 62/57/1 64/58/1 44/37/1
f 62/57/1 61/55/1 63/28/1 64/58/1
f 26/34/15 62/57/15 43/54/15
f 56/59/1 55/27/1 61/55/1 62/57/1
f 27/38/16 58/60/16 60/61/16 28/9/16
f 58/60/1 57/29/1 59/11/1 60/61/1
f 44/37/17 64/58/17 27/38/17
f 64/58/1 63/28/1 57/29/1 58/60/1
f 25/32/16 54/62/16 56/59/16 26/34/16
f 54/62/1 53/26/1 55/27/1 56/59/1
f 6/31/18 49/63/18 54/62/18 25/32/18
f 49/63/19 50/25/19 53/26/19 54/62/19
f 28/9/20 60/61/20 52/64/20 11/10/20
f 60/61/21 59/11/21 51/14/21 52/64/21
f 31/24/6 63/28/6 46/21/6
f 61/55/14 30/20/14 45/56/14
f 62/57/15 26/34/15 56/59/15
f 27/38/17 64/58/17 58/60/17
