# Blender 5.1.0
# www.blender.org
mtllib tree.mtl
o Cylinder
v -0.000000 0.000000 -5.901368
v -0.000000 2.000000 -4.178730
v 4.172897 0.000000 -4.172897
v 2.954808 2.000000 -2.954808
v 5.901368 0.000000 0.000000
v 4.178730 2.000000 0.000000
v 4.172897 0.000000 4.172897
v 2.954808 2.000000 2.954808
v -0.000000 0.000000 5.901368
v -0.000000 2.000000 4.178730
v -4.172897 0.000000 4.172897
v -2.954808 2.000000 2.954808
v -5.901368 0.000000 0.000000
v -4.178730 2.000000 0.000000
v -4.172897 0.000000 -4.172897
v -2.954808 2.000000 -2.954808
v 0.000000 5.190321 -3.377739
v 2.388422 5.190321 -2.388422
v 3.377739 5.190321 0.000000
v 2.388422 5.190321 2.388422
v 0.000000 5.190321 3.377739
v -2.388422 5.190321 2.388422
v -3.377739 5.190321 0.000000
v -2.388422 5.190321 -2.388422
v 2.543211 3.595161 2.543211
v -0.000000 3.595161 3.596643
v -3.596643 3.595161 0.000000
v -2.543211 3.595161 -2.543211
v 2.543211 3.595161 -2.543211
v 3.596643 3.595161 0.000000
v -2.543211 3.595161 2.543211
v -0.000000 3.595161 -3.596643
v 0.073520 10.003985 -3.307770
v 2.412466 10.003985 -2.338946
v 3.381290 10.003985 0.000001
v 2.412466 10.003985 2.338947
v 0.073520 10.003985 3.307771
v -2.265427 10.003985 2.338947
v -3.234251 10.003985 0.000001
v -2.265427 10.003985 -2.338946
v 0.144779 14.493293 -3.307769
v 2.483725 14.493293 -2.338945
v 3.452549 14.493293 0.000001
v 2.483725 14.493293 2.338948
v 0.144779 14.493293 3.307772
v -2.194168 14.493293 2.338948
v -3.162992 14.493293 0.000001
v -2.194168 14.493293 -2.338945
v 0.301954 19.994415 -3.267755
v 2.612606 19.994415 -2.310651
v 3.562948 19.676901 0.000002
v 2.605167 19.676901 2.312288
v 0.301954 19.994415 3.267759
v -2.008700 19.994415 2.310655
v -2.965804 19.994415 0.000002
v -2.008700 19.994415 -2.310651
v 0.389273 21.653484 -3.267755
v 2.699926 21.653484 -2.310651
v 3.653609 21.644522 0.000002
v 2.699061 21.701811 2.310856
v 0.389273 21.653484 3.267760
v -1.921380 21.653484 2.310655
v -2.878484 21.653484 0.000002
v -1.921380 21.653484 -2.310651
v 0.563912 26.368732 -3.267754
v 2.874564 26.368732 -2.310650
v 3.831669 26.368732 0.000003
v 2.874564 26.368732 2.310656
v 0.563912 26.368732 3.267760
v -1.746742 26.368732 2.310656
v -2.703846 26.368732 0.000003
v -1.746742 26.368732 -2.310650
v 4.584264 20.472147 2.717583
v 5.290071 20.400112 0.947359
v 4.242320 22.082067 2.492365
v 4.872373 22.017763 0.912139
v 6.347643 20.968723 3.158159
v 6.947513 20.854773 1.689884
v 5.981846 22.528349 3.029014
v 6.551342 22.470226 1.600673
v 9.004196 22.127453 4.407588
v 9.607446 22.065886 2.894589
v 8.717838 23.584349 4.144261
v 9.340619 23.520786 2.582274
vn 0.2994 0.6227 -0.7229
vn 0.7229 0.6227 -0.2994
vn 0.7229 0.6227 0.2994
vn 0.2994 0.6227 0.7229
vn -0.2994 0.6227 0.7229
vn -0.7229 0.6227 0.2994
vn 0.3796 0.1258 0.9165
vn -0.7229 0.6227 -0.2994
vn -0.2994 0.6227 -0.7229
vn -0.9165 0.1258 -0.3796
vn 0.9165 0.1258 -0.3796
vn -0.3796 0.1258 0.9165
vn -0.3796 0.1258 -0.9165
vn 0.3796 0.1258 -0.9165
vn 0.9165 0.1258 0.3796
vn -0.9165 0.1258 0.3796
vn -0.8755 0.3195 0.3626
vn 0.8755 0.3195 0.3626
vn 0.3626 0.3195 -0.8755
vn -0.3626 0.3195 -0.8755
vn -0.3626 0.3195 0.8755
vn 0.8755 0.3195 -0.3626
vn -0.8755 0.3195 -0.3626
vn 0.3626 0.3195 0.8755
vn -0.9235 0.0275 -0.3825
vn -0.3826 0.0193 0.9237
vn 0.9239 -0.0007 0.3827
vn 0.3827 0.0076 -0.9239
vn -0.3826 0.0193 -0.9237
vn -0.9235 0.0275 0.3825
vn 0.3827 0.0076 0.9239
vn 0.9239 -0.0007 -0.3827
vn -0.3827 0.0061 -0.9239
vn -0.9238 0.0147 0.3826
vn 0.3827 -0.0061 0.9239
vn 0.9238 -0.0147 -0.3826
vn -0.9238 0.0147 -0.3826
vn -0.3827 0.0061 0.9239
vn 0.9238 -0.0147 0.3826
vn 0.3827 -0.0061 -0.9239
vn -0.3826 0.0177 0.9237
vn 0.9237 -0.0197 0.3826
vn 0.3827 -0.0042 -0.9239
vn -0.3826 0.0177 -0.9237
vn -0.9234 0.0331 0.3825
vn 0.3827 -0.0042 0.9239
vn 0.9237 -0.0197 -0.3826
vn -0.9234 0.0331 -0.3825
vn 0.3826 -0.0201 -0.9237
vn -0.3826 0.0201 -0.9237
vn -0.9228 0.0486 0.3822
vn 0.3820 -0.0184 0.9240
vn 0.9225 -0.0453 -0.3833
vn -0.9228 0.0486 -0.3822
vn -0.3826 0.0201 0.9237
vn 0.5229 0.0393 -0.8515
vn -0.9233 0.0342 -0.3825
vn -0.3826 0.0142 0.9238
vn 0.9234 -0.0348 0.3824
vn 0.3826 -0.0142 -0.9238
vn -0.3826 0.0142 -0.9238
vn -0.9233 0.0342 0.3825
vn 0.3828 -0.0143 0.9237
vn 0.9235 -0.0345 -0.3819
vn 0.3796 0.0600 -0.9232
vn -0.2173 0.9689 -0.1188
vn -0.1800 0.0490 0.9824
vn 0.3275 -0.9329 0.1499
vn -0.4116 0.0295 0.9109
vn -0.2107 0.9697 -0.1235
vn -0.2796 0.0448 0.9591
vn 0.2187 -0.9652 0.1436
vn 0.9048 0.2413 0.3509
vn 0.3269 -0.9265 0.1865
vn 0.3854 -0.0373 -0.9220
vn -0.2990 0.9411 -0.1575
vt 1.000000 0.500000
vt 1.000000 1.000000
vt 0.875000 1.000000
vt 0.875000 0.500000
vt 0.750000 1.000000
vt 0.750000 0.500000
vt 0.625000 1.000000
vt 0.625000 0.500000
vt 0.500000 1.000000
vt 0.500000 0.500000
vt 0.375000 1.000000
vt 0.375000 0.500000
vt 0.250000 1.000000
vt 0.250000 0.500000
vt 0.500000 1.000000
vt 0.125000 1.000000
vt 0.125000 0.500000
vt 0.000000 1.000000
vt 0.000000 0.500000
vt 0.125000 1.000000
vt 0.750000 1.000000
vt 0.875000 1.000000
vt 0.375000 1.000000
vt 0.625000 1.000000
vt 0.741046 1.000000
vt 0.737444 1.000000
vt 0.636909 1.000000
vt 0.640825 1.000000
vt 0.646010 1.000000
vt 0.650557 1.000000
vt 0.635793 1.000000
vt 0.750000 1.000000
s 0
f 1/1/1 2/2/1 4/3/1 3/4/1
f 3/4/2 4/3/2 6/5/2 5/6/2
f 5/6/3 6/5/3 8/7/3 7/8/3
f 7/8/4 8/7/4 10/9/4 9/10/4
f 9/10/5 10/9/5 12/11/5 11/12/5
f 11/12/6 12/11/6 14/13/6 13/14/6
f 26/15/7 25/7/7 20/7/7 21/9/7
f 13/14/8 14/13/8 16/16/8 15/17/8
f 15/17/9 16/16/9 2/18/9 1/19/9
f 28/20/10 27/13/10 23/13/10 24/16/10
f 30/21/11 29/22/11 18/3/11 19/5/11
f 31/23/12 26/15/12 21/9/12 22/11/12
f 32/18/13 28/20/13 24/16/13 17/18/13
f 29/22/14 32/2/14 17/2/14 18/3/14
f 25/7/15 30/21/15 19/5/15 20/7/15
f 27/13/16 31/23/16 22/11/16 23/13/16
f 14/13/17 12/11/17 31/23/17 27/13/17
f 8/7/18 6/5/18 30/21/18 25/7/18
f 4/3/19 2/2/19 32/2/19 29/22/19
f 2/18/20 16/16/20 28/20/20 32/18/20
f 12/11/21 10/9/21 26/15/21 31/23/21
f 6/5/22 4/3/22 29/22/22 30/21/22
f 16/16/23 14/13/23 27/13/23 28/20/23
f 10/9/24 8/7/24 25/7/24 26/15/24
f 24/16/25 23/13/25 39/13/25 40/16/25
f 22/11/26 21/9/26 37/9/26 38/11/26
f 20/7/27 19/5/27 35/5/27 36/7/27
f 18/3/28 17/2/28 33/2/28 34/3/28
f 17/18/29 24/16/29 40/16/29 33/18/29
f 23/13/30 22/11/30 38/11/30 39/13/30
f 21/9/31 20/7/31 36/7/31 37/9/31
f 19/5/32 18/3/32 34/3/32 35/5/32
f 33/18/33 40/16/33 48/16/33 41/18/33
f 39/13/34 38/11/34 46/11/34 47/13/34
f 37/9/35 36/7/35 44/7/35 45/9/35
f 35/5/36 34/3/36 42/3/36 43/5/36
f 40/16/37 39/13/37 47/13/37 48/16/37
f 38/11/38 37/9/38 45/9/38 46/11/38
f 36/7/39 35/5/39 43/5/39 44/7/39
f 34/3/40 33/2/40 41/2/40 42/3/40
f 46/11/41 45/9/41 53/9/41 54/11/41
f 44/7/42 43/5/42 51/5/42 52/24/42
f 42/3/43 41/2/43 49/2/43 50/3/43
f 41/18/44 48/16/44 56/16/44 49/18/44
f 47/13/45 46/11/45 54/11/45 55/13/45
f 45/9/46 44/7/46 52/24/46 53/9/46
f 43/5/47 42/3/47 50/3/47 51/5/47
f 48/16/48 47/13/48 55/13/48 56/16/48
f 50/3/49 49/2/49 57/2/49 58/3/49
f 49/18/50 56/16/50 64/16/50 57/18/50
f 55/13/51 54/11/51 62/11/51 63/13/51
f 53/9/52 52/24/52 60/7/52 61/9/52
f 51/5/53 50/3/53 58/3/53 59/5/53
f 56/16/54 55/13/54 63/13/54 64/16/54
f 54/11/55 53/9/55 61/9/55 62/11/55
f 51/5/56 59/5/56 76/25/56 74/5/56
f 64/16/57 63/13/57 71/13/57 72/16/57
f 62/11/58 61/9/58 69/9/58 70/11/58
f 60/7/59 59/5/59 67/5/59 68/7/59
f 58/3/60 57/2/60 65/2/60 66/3/60
f 57/18/61 64/16/61 72/16/61 65/18/61
f 63/13/62 62/11/62 70/11/62 71/13/62
f 61/9/63 60/7/63 68/7/63 69/9/63
f 59/5/64 58/3/64 66/3/64 67/5/64
f 74/5/65 76/25/65 80/26/65 78/5/65
f 59/5/66 60/7/66 75/27/66 76/25/66
f 60/7/67 52/24/67 73/28/67 75/27/67
f 52/24/68 51/5/68 74/5/68 73/28/68
f 79/29/69 77/30/69 81/7/69 83/31/69
f 76/25/70 75/27/70 79/29/70 80/26/70
f 75/27/71 73/28/71 77/30/71 79/29/71
f 73/28/72 74/5/72 78/5/72 77/30/72
f 81/7/73 82/32/73 84/5/73 83/31/73
f 77/30/74 78/5/74 82/32/74 81/7/74
f 78/5/75 80/26/75 84/5/75 82/32/75
f 80/26/76 79/29/76 83/31/76 84/5/76
